<svg width="89" height="10" viewBox="0 0 89 10" fill="none" xmlns="http://www.w3.org/2000/svg">
<path d="M8.03999 0.575981V8.99998H5.98799V5.53198H2.79599V8.99998H0.743988V0.575981H2.79599V3.87598H5.98799V0.575981H8.03999Z" fill="white"/>
<path d="M11.5373 0.575981V5.61598C11.5373 6.11998 11.6613 6.50798 11.9093 6.77998C12.1573 7.05198 12.5213 7.18798 13.0013 7.18798C13.4813 7.18798 13.8493 7.05198 14.1053 6.77998C14.3613 6.50798 14.4893 6.11998 14.4893 5.61598V0.575981H16.5413V5.60398C16.5413 6.35598 16.3813 6.99198 16.0613 7.51198C15.7413 8.03198 15.3093 8.42398 14.7653 8.68798C14.2293 8.95198 13.6293 9.08398 12.9653 9.08398C12.3013 9.08398 11.7053 8.95598 11.1773 8.69998C10.6573 8.43598 10.2453 8.04398 9.94133 7.52398C9.63733 6.99598 9.48533 6.35598 9.48533 5.60398V0.575981H11.5373Z" fill="white"/>
<path d="M23.0823 4.67998C23.5703 4.78398 23.9623 5.02798 24.2583 5.41198C24.5543 5.78798 24.7023 6.21998 24.7023 6.70798C24.7023 7.41198 24.4543 7.97198 23.9583 8.38798C23.4703 8.79598 22.7863 8.99998 21.9063 8.99998H17.9823V0.575981H21.7743C22.6303 0.575981 23.2983 0.771981 23.7783 1.16398C24.2663 1.55598 24.5103 2.08798 24.5103 2.75998C24.5103 3.25598 24.3783 3.66798 24.1143 3.99598C23.8583 4.32398 23.5143 4.55198 23.0823 4.67998ZM20.0343 3.98398H21.3783C21.7143 3.98398 21.9703 3.91198 22.1463 3.76798C22.3303 3.61598 22.4223 3.39598 22.4223 3.10798C22.4223 2.81998 22.3303 2.59998 22.1463 2.44798C21.9703 2.29598 21.7143 2.21998 21.3783 2.21998H20.0343V3.98398ZM21.5463 7.34398C21.8903 7.34398 22.1543 7.26798 22.3383 7.11598C22.5303 6.95598 22.6263 6.72798 22.6263 6.43198C22.6263 6.13598 22.5263 5.90398 22.3263 5.73598C22.1343 5.56798 21.8663 5.48398 21.5223 5.48398H20.0343V7.34398H21.5463Z" fill="white"/>
<path d="M27.9084 0.575981V5.61598C27.9084 6.11998 28.0324 6.50798 28.2804 6.77998C28.5284 7.05198 28.8924 7.18798 29.3724 7.18798C29.8524 7.18798 30.2204 7.05198 30.4764 6.77998C30.7324 6.50798 30.8604 6.11998 30.8604 5.61598V0.575981H32.9124V5.60398C32.9124 6.35598 32.7524 6.99198 32.4324 7.51198C32.1124 8.03198 31.6804 8.42398 31.1364 8.68798C30.6004 8.95198 30.0004 9.08398 29.3364 9.08398C28.6724 9.08398 28.0764 8.95598 27.5484 8.69998C27.0284 8.43598 26.6164 8.04398 26.3124 7.52398C26.0084 6.99598 25.8564 6.35598 25.8564 5.60398V0.575981H27.9084Z" fill="white"/>
<path d="M41.8894 8.99998H39.8374L36.4054 3.80398V8.99998H34.3534V0.575981H36.4054L39.8374 5.79598V0.575981H41.8894V8.99998Z" fill="white"/>
<path d="M48.9688 3.23998C48.8168 2.95998 48.5968 2.74798 48.3088 2.60398C48.0288 2.45198 47.6968 2.37598 47.3128 2.37598C46.6488 2.37598 46.1168 2.59598 45.7168 3.03598C45.3168 3.46798 45.1168 4.04798 45.1168 4.77598C45.1168 5.55198 45.3248 6.15998 45.7408 6.59998C46.1648 7.03198 46.7448 7.24798 47.4808 7.24798C47.9848 7.24798 48.4088 7.11998 48.7528 6.86398C49.1048 6.60798 49.3608 6.23998 49.5208 5.75998H46.9168V4.24798H51.3808V6.15598C51.2288 6.66798 50.9688 7.14398 50.6008 7.58398C50.2408 8.02398 49.7808 8.37998 49.2208 8.65198C48.6608 8.92398 48.0288 9.05998 47.3248 9.05998C46.4928 9.05998 45.7488 8.87998 45.0928 8.51998C44.4448 8.15198 43.9368 7.64398 43.5688 6.99598C43.2088 6.34798 43.0288 5.60798 43.0288 4.77598C43.0288 3.94398 43.2088 3.20398 43.5688 2.55598C43.9368 1.89998 44.4448 1.39198 45.0928 1.03198C45.7408 0.66398 46.4808 0.47998 47.3128 0.47998C48.3208 0.47998 49.1688 0.72398 49.8568 1.21198C50.5528 1.69998 51.0128 2.37598 51.2368 3.23998H48.9688Z" fill="white"/>
<path d="M54.5694 0.575981V8.99998H52.5174V0.575981H54.5694Z" fill="white"/>
<path d="M63.4835 8.99998L60.6515 5.27998V8.99998H58.5995V0.575981H60.6515V4.27198L63.4595 0.575981H65.8715L62.6075 4.70398L65.9915 8.99998H63.4835Z" fill="white"/>
<path d="M72.2106 7.51198H69.0666L68.5626 8.99998H66.4146L69.4626 0.575981H71.8386L74.8866 8.99998H72.7146L72.2106 7.51198ZM71.6826 5.92798L70.6386 2.84398L69.6066 5.92798H71.6826Z" fill="white"/>
<path d="M85.3543 0.575981V8.99998H83.3023V3.94798L81.4183 8.99998H79.7623L77.8663 3.93598V8.99998H75.8143V0.575981H78.2383L80.6023 6.40798L82.9423 0.575981H85.3543Z" fill="white"/>
<path d="M88.8819 0.575981V8.99998H86.8299V0.575981H88.8819Z" fill="white"/>
</svg>
