<?xml version="1.0" encoding="UTF-8"?>
<!DOCTYPE svg PUBLIC "-//W3C//DTD SVG 1.1//EN" "http://www.w3.org/Graphics/SVG/1.1/DTD/svg11.dtd">
<!-- Creator: CorelDRAW 2021 (64-Bit) -->
<svg xmlns="http://www.w3.org/2000/svg" xml:space="preserve" width="101.6mm" height="101.6mm" version="1.1" style="shape-rendering:geometricPrecision; text-rendering:geometricPrecision; image-rendering:optimizeQuality; fill-rule:evenodd; clip-rule:evenodd"
viewBox="0 0 10160 10160"
 xmlns:xlink="http://www.w3.org/1999/xlink"
 xmlns:xodm="http://www.corel.com/coreldraw/odm/2003">
 <defs>
  <style type="text/css">
   <![CDATA[
    .fil0 {fill:#F50008}
   ]]>
  </style>
 </defs>
 <g id="Layer_x0020_1">
  <metadata id="CorelCorpID_0Corel-Layer"/>
  <path class="fil0" d="M4077.81 4420.02l0 19.81 -152.95 0 152.95 83.44 0 214.51c-10.8,-14.16 -15.99,-24.3 -15.99,-24.3l-172.83 -293.43 188.82 -0.03zm0 -352.94l-57.55 101.9 57.55 33.93 0 -135.83zm0 -76.24l0 25.07c-36.12,-20.7 -75.39,-22.48 -86.77,-22.48l-317.52 0 314.15 177.67 -109.43 188.47 129.4 -177.32 70.17 40.82 0 41.26 -68.59 -33.63 -122.52 127.4 191.11 0 0 20.2 -210.57 0 -234.29 -404.22 366.72 0c17.74,1.05 42.51,1.9 78.14,16.76zm0 448.99l273.45 0 -51.71 -87.65 -221.74 -129.11 0 41.26 191.05 93.77 -191.05 0 0 20.2 188.42 0 24.02 41.68 -212.44 0.04 0 19.81zm312.45 253.79l-100.77 -57.62 -94.89 155.96 73.7 -164.74 -190.49 -103.95 0 214.51c14.37,18.89 38.73,44.89 74.06,63.24 53.31,27.67 91.68,27.24 91.68,27.24l146.71 0 0 -19.35 -121.51 0c-40.6,0 -59.95,-19.19 -59.95,-19.19l91.49 -105.23 89.97 41.25 0 -32.12zm0 -259.6l0 240.25 -88.85 -59.24 74.12 -166.99 -60.5 -105.07 -237.22 -140.06 0 -135.83 20.66 -36.66c-6.61,-5.64 -13.58,-10.44 -20.66,-14.51l0 -25.07c6.88,2.86 14.15,6.27 21.9,10.29 59.21,30.73 90.43,87.85 90.43,87.85l200.12 345.04zm228.64 394.24l0 0 -228.64 -394.24 0 240.25 204.19 136.15 -204.19 -116.8 0 32.12 181.45 83.17 -181.45 0 0 19.35 228.64 0 0 0.04 0 -0.04zm134.06 -232.54l0 219.42 -112.4 13.39 112.4 1.47 0 24.74 -105.09 -15.56 105.09 183.47 0 39.01 -134.06 -233.36 0 -0.04 0.02 0 -0.02 0 134.06 -232.54zm355.3 232.38l0 0.05 -0.05 0.11 0.05 0 0 0.08 -244.89 425.54 -110.41 -192.22 0 -39.01 105.07 183.52 -40.56 -341.84 -64.51 -9.59 0 -24.74 105.69 1.35 6.5 376.4 20.26 -376.4 197.47 -7.12 -219.43 -378.13 -4.8 356.42 -105.69 12.62 0 -219.42 110.04 -190.91 245.26 423.29zm228.64 -19.19l-181.46 0 181.46 -83.2 0 -32.24 -204.26 116.8 204.26 -136.19 0 -240.21 -228.64 394.28 0 -0.05 0.08 0.12 -0.08 0.12 0 -0.08 228.64 0 0 -19.35zm312.42 -585.91l-221.77 129.06 -51.65 87.66 273.42 0 0 -19.74 -212.38 0 23.98 -41.72 188.4 0 0 -20.16 -191.1 0 191.1 -93.85 0 -41.25zm0 -232.24l0 25.15c-7.07,4.07 -13.98,8.83 -20.54,14.48l20.54 36.38 0 136.1 -237.27 140.02 -60.56 105.03 74.22 166.91 -88.81 59.25 0 -240.21 200.03 -345c0,0 31.24,-57.13 90.53,-87.86 7.71,-4.01 14.98,-7.39 21.86,-10.25zm-130.99 798.96c0,0 -19.41,19.19 -59.96,19.19l-121.47 0 0 19.35 146.63 0c0,0 38.4,0.27 91.64,-27.28 35.36,-18.43 59.74,-44.39 74.15,-63.28l0 -214.51 -190.52 103.91 73.68 164.79 -94.89 -156 -100.69 57.58 0 32.24 89.9 -41.22 91.53 105.23zm130.99 -586.85l57.64 -34.01 -57.64 -102.09 0 136.1zm0 175.39l0 -20.16 191.1 0 -122.52 -127.52 -68.58 33.67 0 -41.25 70.17 -40.83 129.41 177.4 -109.52 -188.59 314.26 -177.59 -317.57 0c-11.4,0 -50.7,1.82 -86.75,22.52l0 -25.15c35.53,-14.82 60.34,-15.67 78.11,-16.79l366.71 0 -234.34 404.29 -210.48 0zm0 359.44l0 -214.51 152.94 -83.47 -152.94 0 0 -19.74 188.79 0 -172.8 293.38c0,0 -5.19,10.18 -15.99,24.34z"/>
 </g>
</svg>
