<svg width="238" height="152" viewBox="0 0 238 152" fill="none" xmlns="http://www.w3.org/2000/svg">
<g filter="url(#filter0_dddddd)">
<path d="M80.2727 15C80.2727 6.71573 86.9885 0 95.2727 0H234C234.552 0 235 0.447715 235 1V22C235 30.2843 228.284 37 220 37H81.2727C80.7205 37 80.2727 36.5523 80.2727 36V15Z" fill="#00A37C"/>
</g>
<g clip-path="url(#clip0)">
<path fill-rule="evenodd" clip-rule="evenodd" d="M216.405 21.7313C216.071 21.5643 214.432 20.7592 214.128 20.6471C213.823 20.5361 213.601 20.4812 213.377 20.8153C213.155 21.1472 212.517 21.8984 212.323 22.1204C212.128 22.3435 211.934 22.3704 211.601 22.2045C211.268 22.0363 210.194 21.6854 208.922 20.5507C207.932 19.6672 207.262 18.5762 207.068 18.2421C206.874 17.9091 207.047 17.7286 207.214 17.5627C207.364 17.4135 207.547 17.1736 207.714 16.9796C207.881 16.7845 207.936 16.6455 208.047 16.4224C208.159 16.2004 208.103 16.0064 208.019 15.8394C207.936 15.6723 207.27 14.032 206.992 13.3649C206.722 12.7157 206.447 12.8042 206.243 12.793C206.048 12.7841 205.826 12.7818 205.604 12.7818C205.382 12.7818 205.021 12.8648 204.716 13.1989C204.41 13.5319 203.55 14.3381 203.55 15.9784C203.55 17.6176 204.743 19.2019 204.91 19.425C205.077 19.647 207.259 23.0129 210.601 24.4559C211.397 24.799 212.017 25.0042 212.501 25.1566C213.299 25.4112 214.025 25.3753 214.6 25.2889C215.239 25.1936 216.571 24.4828 216.849 23.7047C217.126 22.9265 217.126 22.2594 217.043 22.1204C216.96 21.9814 216.738 21.8984 216.404 21.7313H216.405ZM210.325 30.0317H210.321C208.336 30.032 206.387 29.4984 204.679 28.4866L204.275 28.2467L200.08 29.3477L201.2 25.2575L200.936 24.8382C199.827 23.0716 199.239 21.027 199.242 18.9406C199.245 12.83 204.216 7.85858 210.33 7.85858C213.29 7.85858 216.073 9.01343 218.165 11.1079C219.197 12.1355 220.015 13.3576 220.571 14.7035C221.128 16.0493 221.412 17.4921 221.408 18.9485C221.405 25.0591 216.434 30.0317 210.325 30.0317V30.0317ZM219.757 9.51685C218.522 8.27334 217.052 7.28736 215.433 6.61605C213.814 5.94474 212.077 5.60145 210.324 5.60606C202.976 5.60606 196.993 11.5877 196.991 18.9395C196.99 21.2896 197.603 23.5836 198.77 25.6051L196.879 32.5152L203.947 30.6607C205.902 31.726 208.093 32.2841 210.32 32.2842H210.325C217.674 32.2842 223.657 26.3025 223.659 18.9496C223.664 17.1975 223.322 15.4616 222.653 13.8425C221.983 12.2234 220.999 10.7532 219.757 9.51685" fill="white"/>
</g>
<path d="M101.621 15.2216V24.6666H99.3199V20.7783H95.741V24.6666H93.4402V15.2216H95.741V18.9216H99.3199V15.2216H101.621Z" fill="white"/>
<path d="M105.542 15.2216V20.8725C105.542 21.4376 105.681 21.8726 105.959 22.1776C106.237 22.4825 106.645 22.635 107.183 22.635C107.722 22.635 108.134 22.4825 108.421 22.1776C108.708 21.8726 108.852 21.4376 108.852 20.8725V15.2216H111.152V20.859C111.152 21.7022 110.973 22.4153 110.614 22.9983C110.255 23.5813 109.771 24.0208 109.161 24.3168C108.56 24.6128 107.887 24.7608 107.143 24.7608C106.398 24.7608 105.73 24.6173 105.138 24.3303C104.555 24.0343 104.093 23.5948 103.752 23.0117C103.412 22.4197 103.241 21.7022 103.241 20.859V15.2216H105.542Z" fill="white"/>
<path d="M118.486 19.823C119.033 19.9396 119.473 20.2132 119.805 20.6437C120.137 21.0653 120.303 21.5497 120.303 22.0968C120.303 22.8862 120.024 23.514 119.468 23.9805C118.921 24.4379 118.154 24.6666 117.168 24.6666H112.768V15.2216H117.02C117.979 15.2216 118.728 15.4413 119.267 15.8808C119.814 16.3203 120.087 16.9168 120.087 17.6703C120.087 18.2264 119.939 18.6883 119.643 19.0561C119.356 19.4239 118.971 19.6795 118.486 19.823ZM115.069 19.0426H116.576C116.952 19.0426 117.239 18.9619 117.437 18.8005C117.643 18.63 117.746 18.3834 117.746 18.0605C117.746 17.7376 117.643 17.4909 117.437 17.3205C117.239 17.15 116.952 17.0648 116.576 17.0648H115.069V19.0426ZM116.764 22.8099C117.15 22.8099 117.446 22.7247 117.652 22.5543C117.867 22.3749 117.975 22.1193 117.975 21.7874C117.975 21.4555 117.863 21.1954 117.639 21.007C117.423 20.8187 117.123 20.7245 116.737 20.7245H115.069V22.8099H116.764Z" fill="white"/>
<path d="M123.897 15.2216V20.8725C123.897 21.4376 124.036 21.8726 124.314 22.1776C124.592 22.4825 125.001 22.635 125.539 22.635C126.077 22.635 126.49 22.4825 126.777 22.1776C127.064 21.8726 127.207 21.4376 127.207 20.8725V15.2216H129.508V20.859C129.508 21.7022 129.328 22.4153 128.97 22.9983C128.611 23.5813 128.127 24.0208 127.517 24.3168C126.916 24.6128 126.243 24.7608 125.498 24.7608C124.754 24.7608 124.086 24.6173 123.494 24.3303C122.911 24.0343 122.449 23.5948 122.108 23.0117C121.767 22.4197 121.597 21.7022 121.597 20.859V15.2216H123.897Z" fill="white"/>
<path d="M139.573 24.6666H137.272L133.424 18.8408V24.6666H131.123V15.2216H133.424L137.272 21.0743V15.2216H139.573V24.6666Z" fill="white"/>
<path d="M147.51 18.2085C147.34 17.8945 147.093 17.6568 146.77 17.4954C146.457 17.325 146.084 17.2397 145.654 17.2397C144.909 17.2397 144.313 17.4864 143.864 17.9797C143.416 18.4641 143.192 19.1144 143.192 19.9306C143.192 20.8007 143.425 21.4824 143.891 21.9757C144.367 22.4601 145.017 22.7023 145.842 22.7023C146.407 22.7023 146.883 22.5588 147.268 22.2717C147.663 21.9847 147.95 21.5721 148.129 21.0339H145.21V19.3386H150.215V21.4779C150.044 22.052 149.753 22.5857 149.34 23.079C148.937 23.5723 148.421 23.9715 147.793 24.2765C147.165 24.5814 146.457 24.7339 145.667 24.7339C144.734 24.7339 143.9 24.5321 143.165 24.1285C142.438 23.7159 141.869 23.1463 141.456 22.4197C141.052 21.6932 140.85 20.8635 140.85 19.9306C140.85 18.9978 141.052 18.1681 141.456 17.4416C141.869 16.706 142.438 16.1365 143.165 15.7328C143.891 15.3202 144.721 15.1139 145.654 15.1139C146.784 15.1139 147.735 15.3875 148.506 15.9346C149.286 16.4818 149.802 17.2397 150.053 18.2085H147.51Z" fill="white"/>
<path d="M153.79 15.2216V24.6666H151.489V15.2216H153.79Z" fill="white"/>
<path d="M163.784 24.6666L160.609 20.4957V24.6666H158.308V15.2216H160.609V19.3656L163.758 15.2216H166.462L162.802 19.8499L166.596 24.6666H163.784Z" fill="white"/>
<path d="M173.57 22.9983H170.044L169.479 24.6666H167.071L170.488 15.2216H173.152L176.57 24.6666H174.135L173.57 22.9983ZM172.978 21.2223L171.807 17.7645L170.65 21.2223H172.978Z" fill="white"/>
<path d="M188.306 15.2216V24.6666H186.006V19.0023L183.893 24.6666H182.037L179.911 18.9888V24.6666H177.61V15.2216H180.328L182.978 21.7605L185.602 15.2216H188.306Z" fill="white"/>
<path d="M192.262 15.2216V24.6666H189.961V15.2216H192.262Z" fill="white"/>
<defs>
<filter id="filter0_dddddd" x="0.272736" y="0" width="314.727" height="217" filterUnits="userSpaceOnUse" color-interpolation-filters="sRGB">
<feFlood flood-opacity="0" result="BackgroundImageFix"/>
<feColorMatrix in="SourceAlpha" type="matrix" values="0 0 0 0 0 0 0 0 0 0 0 0 0 0 0 0 0 0 127 0" result="hardAlpha"/>
<feOffset dy="2.76726"/>
<feGaussianBlur stdDeviation="1.1069"/>
<feColorMatrix type="matrix" values="0 0 0 0 0 0 0 0 0 0 0 0 0 0 0 0 0 0 0.0196802 0"/>
<feBlend mode="normal" in2="BackgroundImageFix" result="effect1_dropShadow"/>
<feColorMatrix in="SourceAlpha" type="matrix" values="0 0 0 0 0 0 0 0 0 0 0 0 0 0 0 0 0 0 127 0" result="hardAlpha"/>
<feOffset dy="6.6501"/>
<feGaussianBlur stdDeviation="2.66004"/>
<feColorMatrix type="matrix" values="0 0 0 0 0 0 0 0 0 0 0 0 0 0 0 0 0 0 0.0282725 0"/>
<feBlend mode="normal" in2="effect1_dropShadow" result="effect2_dropShadow"/>
<feColorMatrix in="SourceAlpha" type="matrix" values="0 0 0 0 0 0 0 0 0 0 0 0 0 0 0 0 0 0 127 0" result="hardAlpha"/>
<feOffset dy="12.5216"/>
<feGaussianBlur stdDeviation="5.00862"/>
<feColorMatrix type="matrix" values="0 0 0 0 0 0 0 0 0 0 0 0 0 0 0 0 0 0 0.035 0"/>
<feBlend mode="normal" in2="effect2_dropShadow" result="effect3_dropShadow"/>
<feColorMatrix in="SourceAlpha" type="matrix" values="0 0 0 0 0 0 0 0 0 0 0 0 0 0 0 0 0 0 127 0" result="hardAlpha"/>
<feOffset dy="22.3363"/>
<feGaussianBlur stdDeviation="8.93452"/>
<feColorMatrix type="matrix" values="0 0 0 0 0 0 0 0 0 0 0 0 0 0 0 0 0 0 0.0417275 0"/>
<feBlend mode="normal" in2="effect3_dropShadow" result="effect4_dropShadow"/>
<feColorMatrix in="SourceAlpha" type="matrix" values="0 0 0 0 0 0 0 0 0 0 0 0 0 0 0 0 0 0 127 0" result="hardAlpha"/>
<feOffset dy="41.7776"/>
<feGaussianBlur stdDeviation="16.711"/>
<feColorMatrix type="matrix" values="0 0 0 0 0 0 0 0 0 0 0 0 0 0 0 0 0 0 0.0503198 0"/>
<feBlend mode="normal" in2="effect4_dropShadow" result="effect5_dropShadow"/>
<feColorMatrix in="SourceAlpha" type="matrix" values="0 0 0 0 0 0 0 0 0 0 0 0 0 0 0 0 0 0 127 0" result="hardAlpha"/>
<feOffset dy="100"/>
<feGaussianBlur stdDeviation="40"/>
<feColorMatrix type="matrix" values="0 0 0 0 0 0 0 0 0 0 0 0 0 0 0 0 0 0 0.07 0"/>
<feBlend mode="normal" in2="effect5_dropShadow" result="effect6_dropShadow"/>
<feBlend mode="normal" in="SourceGraphic" in2="effect6_dropShadow" result="shape"/>
</filter>
<clipPath id="clip0">
<rect width="26.9091" height="26.9091" fill="white" transform="translate(196.879 5.60606)"/>
</clipPath>
</defs>
</svg>
